<?xml version="1.0" encoding="iso-8859-1"?>
<!-- Uploaded to: SVG Repo, www.svgrepo.com, Generator: SVG Repo Mixer Tools -->
<svg height="800px" width="800px" version="1.1" id="Layer_1" xmlns="http://www.w3.org/2000/svg" xmlns:xlink="http://www.w3.org/1999/xlink" 
	 viewBox="0 0 496.262 496.262" xml:space="preserve">
<circle style="fill:#F2D168;" cx="248.131" cy="392.539" r="103.715"/>
<path style="fill:#E2BE59;" d="M351.846,392.539c0,57.289-46.442,103.723-103.715,103.723"/>
<path style="fill:#F2D168;" d="M307.2,337.4c0,32.634-26.443,59.077-59.069,59.077l0,0c-32.626,0-59.085-26.443-59.085-59.077
	V59.077C189.046,26.459,215.505,0,248.131,0l0,0C280.757,0,307.2,26.459,307.2,59.077V337.4z"/>
<path style="fill:#EFDA75;" d="M189.046,201.523V59.077C189.046,26.459,215.505,0,248.131,0l0,0"/>
<circle style="fill:#16C1A4;" cx="248.131" cy="392.539" r="29.538"/>
<path style="fill:#17ACBF;" d="M277.669,392.539c0,16.321-13.225,29.538-29.538,29.538s-29.538-13.217-29.538-29.538"/>
<path style="fill:#16C1A4;" d="M256.992,387.616c0,4.892-3.97,8.862-8.862,8.862l0,0c-4.899,0-8.869-3.97-8.869-8.862V58.754
	c0-4.892,3.97-8.862,8.869-8.862l0,0c4.892,0,8.862,3.97,8.862,8.862V387.616z"/>
<g>
	<path style="fill:#B79639;" d="M295.385,108.308c0,1.095-0.882,1.969-1.969,1.969h-18.377c-1.103,0-1.969-0.874-1.969-1.969l0,0
		c0-1.095,0.866-1.969,1.969-1.969h18.377C294.502,106.338,295.385,107.213,295.385,108.308L295.385,108.308z"/>
	<path style="fill:#B79639;" d="M295.385,123.573c0,1.095-0.882,1.969-1.969,1.969h-2.623c-1.103,0-1.969-0.874-1.969-1.969l0,0
		c0-1.095,0.866-1.969,1.969-1.969h2.623C294.502,121.604,295.385,122.478,295.385,123.573L295.385,123.573z"/>
	<path style="fill:#B79639;" d="M295.385,139.815c0,1.095-0.882,1.969-1.969,1.969h-18.377c-1.103,0-1.969-0.874-1.969-1.969l0,0
		c0-1.095,0.866-1.969,1.969-1.969h18.377C294.502,137.846,295.385,138.721,295.385,139.815L295.385,139.815z"/>
	<path style="fill:#B79639;" d="M295.385,155.081c0,1.095-0.882,1.969-1.969,1.969h-2.623c-1.103,0-1.969-0.874-1.969-1.969l0,0
		c0-1.095,0.866-1.969,1.969-1.969h2.623C294.502,153.112,295.385,153.986,295.385,155.081L295.385,155.081z"/>
	<path style="fill:#B79639;" d="M295.385,171.323c0,1.095-0.882,1.969-1.969,1.969h-18.377c-1.103,0-1.969-0.874-1.969-1.969l0,0
		c0-1.095,0.866-1.969,1.969-1.969h18.377C294.502,169.354,295.385,170.228,295.385,171.323L295.385,171.323z"/>
	<path style="fill:#B79639;" d="M295.385,186.589c0,1.095-0.882,1.969-1.969,1.969h-2.623c-1.103,0-1.969-0.874-1.969-1.969l0,0
		c0-1.095,0.866-1.969,1.969-1.969h2.623C294.502,184.619,295.385,185.494,295.385,186.589L295.385,186.589z"/>
	<path style="fill:#B79639;" d="M295.385,202.831c0,1.095-0.882,1.969-1.969,1.969h-18.377c-1.103,0-1.969-0.874-1.969-1.969l0,0
		c0-1.095,0.866-1.969,1.969-1.969h18.377C294.502,200.862,295.385,201.736,295.385,202.831L295.385,202.831z"/>
	<path style="fill:#B79639;" d="M295.385,218.096c0,1.095-0.882,1.969-1.969,1.969h-2.623c-1.103,0-1.969-0.874-1.969-1.969l0,0
		c0-1.095,0.866-1.969,1.969-1.969h2.623C294.502,216.127,295.385,217.001,295.385,218.096L295.385,218.096z"/>
	<path style="fill:#B79639;" d="M295.385,234.338c0,1.095-0.882,1.969-1.969,1.969h-18.377c-1.103,0-1.969-0.874-1.969-1.969l0,0
		c0-1.095,0.866-1.969,1.969-1.969h18.377C294.502,232.369,295.385,233.244,295.385,234.338L295.385,234.338z"/>
	<path style="fill:#B79639;" d="M295.385,249.604c0,1.095-0.882,1.969-1.969,1.969h-2.623c-1.103,0-1.969-0.874-1.969-1.969l0,0
		c0-1.095,0.866-1.969,1.969-1.969h2.623C294.502,247.635,295.385,248.509,295.385,249.604L295.385,249.604z"/>
	<path style="fill:#B79639;" d="M295.385,265.846c0,1.095-0.882,1.969-1.969,1.969h-18.377c-1.103,0-1.969-0.874-1.969-1.969l0,0
		c0-1.095,0.866-1.969,1.969-1.969h18.377C294.502,263.877,295.385,264.751,295.385,265.846L295.385,265.846z"/>
	<path style="fill:#B79639;" d="M295.385,281.112c0,1.095-0.882,1.969-1.969,1.969h-2.623c-1.103,0-1.969-0.874-1.969-1.969l0,0
		c0-1.095,0.866-1.969,1.969-1.969h2.623C294.502,279.142,295.385,280.017,295.385,281.112L295.385,281.112z"/>
</g>
<path style="fill:#897440;" d="M248.131,49.892c-4.899,0-8.869,3.97-8.869,8.862v247.138h17.731V58.754
	C256.992,53.862,253.023,49.892,248.131,49.892z"/>
</svg>